<svg preserveAspectRatio="none" overflow="visible" style="display: block;" width="25" height="24" viewBox="0 0 25 24" fill="none" xmlns="http://www.w3.org/2000/svg">
<g id="Icon">
<path id="Vector" d="M12.5 3.96L17.4377 8.92C18.344 9.81333 18.957 10.8667 19.2769 12.08C19.5834 13.2667 19.5834 14.4533 19.2769 15.64C18.957 16.8533 18.3473 17.91 17.4477 18.81C16.5481 19.71 15.492 20.32 14.2792 20.64C13.0931 20.9467 11.9069 20.9467 10.7208 20.64C9.50803 20.32 8.45185 19.71 7.55226 18.81C6.65267 17.91 6.04295 16.8533 5.7231 15.64C5.41657 14.4533 5.41657 13.2667 5.7231 12.08C6.04295 10.8667 6.656 9.81333 7.56226 8.92L12.5 3.96ZM12.5 1.14L6.14291 7.5C4.98344 8.64667 4.20379 10.0067 3.80397 11.58C3.40416 13.1 3.40416 14.62 3.80397 16.14C4.20379 17.7133 4.9801 19.0767 6.13291 20.23C7.28572 21.3833 8.64843 22.1667 10.221 22.58C11.7403 22.9667 13.2597 22.9667 14.779 22.58C16.3516 22.1667 17.7143 21.3833 18.8671 20.23C20.0199 19.0767 20.7962 17.7133 21.196 16.14C21.5958 14.62 21.5958 13.1 21.196 11.58C20.7962 10.0067 20.0166 8.64667 18.8571 7.5L12.5 1.14ZM12.5 11.86C12.8598 11.86 13.193 11.95 13.4995 12.13C13.8061 12.31 14.0493 12.5533 14.2292 12.86C14.4091 13.1667 14.4991 13.5 14.4991 13.86C14.4991 14.22 14.4091 14.5533 14.2292 14.86C14.0493 15.1667 13.8061 15.41 13.4995 15.59C13.193 15.77 12.8598 15.86 12.5 15.86C12.1402 15.86 11.807 15.77 11.5005 15.59C11.1939 15.41 10.9507 15.1667 10.7708 14.86C10.5909 14.5533 10.5009 14.22 10.5009 13.86C10.5009 13.5 10.5909 13.1667 10.7708 12.86C10.9507 12.5533 11.1939 12.31 11.5005 12.13C11.807 11.95 12.1402 11.86 12.5 11.86ZM12.5 9.86C11.7803 9.86 11.114 10.04 10.5009 10.4C9.88786 10.76 9.40142 11.2467 9.04158 11.86C8.68174 12.4733 8.50183 13.1433 8.50183 13.87C8.50183 14.5967 8.68174 15.2633 9.04158 15.87C9.40142 16.4767 9.88786 16.96 10.5009 17.32C11.114 17.68 11.7803 17.86 12.5 17.86C13.2197 17.86 13.886 17.68 14.4991 17.32C15.1121 16.96 15.5986 16.4767 15.9584 15.87C16.3183 15.2633 16.4982 14.5967 16.4982 13.87C16.4982 13.1433 16.3183 12.4733 15.9584 11.86C15.5986 11.2467 15.1121 10.76 14.4991 10.4C13.886 10.04 13.2197 9.86 12.5 9.86Z" fill="#BA864F"/>
</g>
</svg>
